<?xml version="1.0" standalone="no"?><!DOCTYPE svg PUBLIC "-//W3C//DTD SVG 1.1//EN" "http://www.w3.org/Graphics/SVG/1.1/DTD/svg11.dtd"><svg t="1576498668129" class="icon" viewBox="0 0 1024 1024" version="1.1" xmlns="http://www.w3.org/2000/svg" p-id="2672" width="128" height="128" xmlns:xlink="http://www.w3.org/1999/xlink"><defs><style type="text/css"></style></defs><path d="M512 0c282.76736 0 512 229.23264 512 512s-229.23264 512-512 512S0 794.76736 0 512 229.23264 0 512 0z" fill="#2EA9D3" p-id="2673"></path><path d="M915.77344 197.36576a513.86368 513.86368 0 0 0-56.23808-61.2352L673.51552 322.1504a27.904 27.904 0 0 1-4.85376-0.62464c-14.00832-3.19488-25.62048-16.14848-30.9248-29.16352-11.08992-27.20768-1.11616-56.71936 16.39424-78.63296 8.3968-10.496 27.61728-27.38176 14.7968-41.35936-20.56192-22.36416-59.65824 5.19168-76.86144 19.10784-41.58464 33.64864-59.648 77.7216-83.65056 123.62752-12.0832 23.11168-26.76736 45.056-47.74912 60.95872-20.82816 15.8208-44.2368 21.6576-68.37248 30.04416a504.25856 504.25856 0 0 0-43.84768 17.39776c-53.504 24.41216-111.38048 63.73376-128.89088 123.3408-8.5504 29.06112-4.68992 59.33056 6.656 87.04a275.03616 275.03616 0 0 0 20.96128 40.8576c32.1536 51.83488 77.43488 97.85344 123.1872 137.75872 22.39488 19.53792 47.7184 37.40672 77.01504 44.25728 35.28704 8.2432 74.72128 0.96256 106.02496-16.82432 62.37184-35.42016 95.65184-149.93408 95.65184-149.93408 4.2496-13.69088 8.45824-27.392 13.91616-40.62208 9.76896-23.6544 24.2688-43.58144 45.86496-57.62048 10.65984-6.912 22.13888-12.4416 33.59744-17.84832 13.99808-6.61504 28.0576-12.25728 41.3184-20.34688 19.9168-12.14464 38.43072-27.96544 48.83456-49.34656 2.99008-6.1952 6.87104-14.47936 7.10656-21.6576 0.3072-10.3424-4.05504-23.56224-15.73888-25.4976-11.8784-1.9456-21.54496 6.99392-31.03744 12.60544-12.05248 7.09632-25.15968 13.09696-39.168 14.7968-11.90912 1.45408-22.71232-3.40992-31.98976-10.58816-12.17536-9.44128-26.25536-28.09856-26.64448-44.55424l0.21504-11.55072 220.44672-220.40576z" fill="#2998BD" p-id="2674"></path><path d="M683.264 294.52288c-10.17856 10.02496-19.38432 20.34688-35.072 16.76288-14.00832-3.19488-25.62048-16.14848-30.9248-29.16352-11.08992-27.20768-1.11616-56.71936 16.39424-78.63296 8.3968-10.496 27.61728-27.38176 14.7968-41.35936-20.56192-22.36416-59.65824 5.19168-76.86144 19.10784-41.58464 33.64864-59.648 77.7216-83.65056 123.62752-12.0832 23.11168-26.76736 45.056-47.74912 60.95872-20.82816 15.8208-44.2368 21.6576-68.37248 30.04416a504.25856 504.25856 0 0 0-43.84768 17.39776c-53.504 24.41216-111.38048 63.73376-128.89088 123.3408-8.5504 29.06112-4.68992 59.33056 6.656 87.04a275.03616 275.03616 0 0 0 20.96128 40.8576c32.1536 51.83488 77.43488 97.85344 123.1872 137.75872 22.39488 19.53792 47.7184 37.40672 77.01504 44.25728 35.28704 8.2432 74.72128 0.96256 106.02496-16.82432 62.37184-35.42016 95.65184-149.93408 95.65184-149.93408 4.2496-13.69088 8.45824-27.392 13.91616-40.62208 9.76896-23.6544 24.2688-43.58144 45.86496-57.62048 10.65984-6.912 22.13888-12.4416 33.59744-17.84832 13.99808-6.61504 28.0576-12.25728 41.3184-20.34688 19.9168-12.14464 38.43072-27.96544 48.83456-49.34656 2.99008-6.1952 6.87104-14.47936 7.10656-21.6576 0.3072-10.3424-4.05504-23.56224-15.73888-25.4976-11.8784-1.9456-21.54496 6.99392-31.03744 12.60544-12.05248 7.09632-25.15968 13.09696-39.168 14.7968-11.90912 1.45408-22.71232-3.40992-31.98976-10.58816-12.17536-9.44128-26.25536-28.09856-26.64448-44.55424-0.02048-1.50528 0.73728-34.53952 0.73728-34.53952s6.05184-39.49568 7.8848-90.01984z" fill="#324D5B" p-id="2675"></path><path d="M219.55584 516.12672c-8.5504 29.05088-4.68992 59.32032 6.656 87.04a275.03616 275.03616 0 0 0 20.96128 40.8576c32.1536 51.83488 77.43488 97.85344 123.1872 137.75872 22.39488 19.53792 47.7184 37.40672 77.01504 44.25728 35.28704 8.2432 74.72128 0.96256 106.02496-16.82432 5.0688-2.8672 9.87136-6.42048 14.55104-10.24-10.42432 12.47232-22.05696 23.35744-35.03104 30.72-31.30368 17.77664-70.73792 25.05728-106.02496 16.82432-29.29664-6.85056-54.62016-24.71936-77.01504-44.25728-45.76256-39.90528-91.0336-85.93408-123.1872-137.75872a274.56512 274.56512 0 0 1-20.96128-40.8576c-11.33568-27.70944-15.2064-57.97888-6.656-87.04 8.8064-29.96224 27.81184-54.79424 51.33312-75.18208-13.84448 15.9744-24.79104 34.0992-30.85312 54.70208z" fill="#283E49" p-id="2676"></path><path d="M620.06272 337.50016c8.13056 27.46368 19.53792 53.69856 31.11936 79.79008 12.544 28.25216 22.99904 61.25568 55.7056 70.77888 7.46496 2.1504 16.50688 3.6352 24.28928 3.05152 19.24096-1.40288 35.84-10.86464 51.82464-21.16608 3.50208-2.27328 10.97728-9.24672 14.47936-4.06528 3.50208 5.16096-0.8704 16.01536-3.15392 20.6848-5.29408 10.88512-14.42816 19.68128-23.56224 27.27936-30.70976 25.56928-68.87424 35.54304-101.60128 57.2928-16.56832 11.01824-27.56608 26.92096-36.01408 44.88192-13.58848 28.86656-24.44288 59.06432-35.9424 88.85248l-5.16096 13.33248c-5.56032 14.30528-11.45856 28.01664-18.81088 41.48224-6.15424 11.264-18.0736 32.13312-34.17088 28.59008-5.89824-1.32096-9.96352-7.33184-12.40064-12.55424-5.87776-12.58496-5.53984-27.8528-5.66272-41.44128-0.14336-16.55808-4.46464-33.9456-11.29472-48.91648-6.0416-13.2608-14.53056-24.7808-24.09472-35.47136-9.4208-10.55744-19.87584-20.28544-29.96224-30.03392-15.27808-14.77632-29.4912-30.74048-45.38368-44.88192-10.46528-9.39008-25.48736-21.03296-29.58336-35.38944-10.17856-35.64544 21.248-69.12 48.08704-86.24128 8.57088-5.4784 17.77664-10.06592 27.0848-14.17216 32.93184-14.47936 65.26976-30.208 91.47392-55.77728 15.81056-15.4624 26.2144-33.40288 38.36928-51.63008 3.44064-5.13024 7.29088-11.0592 13.23008-13.34272 13.29152-5.23264 18.11456 8.94976 21.13536 19.06688z" fill="#FFFFFF" p-id="2677"></path><path d="M522.47552 464.27136a12.0832 12.0832 0 0 0-17.1008 0 12.1344 12.1344 0 0 0 0 17.13152l37.21216 37.28384a12.10368 12.10368 0 0 0 17.11104-17.11104l-37.2224-37.30432zM482.6112 506.9824a11.75552 11.75552 0 0 0-16.72192-3.24608c-5.48864 3.86048-6.89152 11.6224-3.14368 17.31584l37.69344 36.66944a11.776 11.776 0 0 0 16.71168 3.24608 12.73856 12.73856 0 0 0 3.14368-17.31584l-37.6832-36.66944z m118.00576-46.35648l-37.2224-37.28384a12.0832 12.0832 0 0 0-17.1008 0 12.1344 12.1344 0 0 0 0 17.13152l37.2224 37.2736a12.10368 12.10368 0 0 0 17.1008-17.12128z m-78.14144 3.64544a12.0832 12.0832 0 0 0-17.1008 0 12.1344 12.1344 0 0 0 0 17.13152l37.21216 37.28384a12.10368 12.10368 0 0 0 17.11104-17.11104l-37.2224-37.30432zM482.6112 506.9824a11.75552 11.75552 0 0 0-16.72192-3.24608c-5.48864 3.86048-6.89152 11.6224-3.14368 17.31584l37.69344 36.66944a11.776 11.776 0 0 0 16.71168 3.24608 12.73856 12.73856 0 0 0 3.14368-17.31584l-37.6832-36.66944z m118.00576-46.35648l-37.2224-37.28384a12.0832 12.0832 0 0 0-17.1008 0 12.1344 12.1344 0 0 0 0 17.13152l37.2224 37.2736a12.10368 12.10368 0 0 0 17.1008-17.12128z" fill="#F0CB6A" p-id="2678"></path><path d="M423.18848 558.49984l42.00448 42.01472a19.79392 19.79392 0 0 1 0 27.99616l-21.00224 21.00224a19.79392 19.79392 0 0 1-27.99616 0l-42.00448-42.00448a19.80416 19.80416 0 0 1 0-28.0064l21.00224-21.00224a19.8144 19.8144 0 0 1 27.99616 0z" fill="#CCD0D2" p-id="2679"></path><path d="M573.5424 634.88c0-11.3152-9.216-20.50048-20.5824-20.50048s-20.5824 9.18528-20.5824 20.50048c0 11.32544 9.216 20.52096 20.5824 20.52096s20.5824-9.19552 20.5824-20.52096z m-15.4624 40.93952c-8.51968 0-15.44192 6.89152-15.44192 15.38048 0 8.4992 6.92224 15.38048 15.44192 15.38048s15.44192-6.88128 15.44192-15.38048c0-8.48896-6.92224-15.38048-15.44192-15.38048z" fill="#324D5B" p-id="2680"></path><path d="M658.33984 424.07936a20.76672 20.76672 0 0 1-29.36832 0l-29.36832-29.36832a20.76672 20.76672 0 0 1 0-29.36832l243.61984-243.61984a515.57376 515.57376 0 0 1 58.75712 58.70592L658.33984 424.07936z" fill="#E8B873" p-id="2681"></path><path d="M712.3456 370.06336c-0.01024-14.06976 1.7408-27.9552 3.5328-41.69728 3.38944-25.96864 6.56384-51.02592-2.29376-77.01504l-18.86208 18.86208c6.83008 30.208 4.94592 73.41056-25.1904 130.46784a657.44896 657.44896 0 0 0-12.01152 24.05376l0.80896-0.65536 54.016-54.016z m98.00704-215.47008l-14.45888 14.45888c17.2544 27.52512 38.97344 55.12192 57.69216 59.78112l9.95328-9.94304c-20.66432-15.94368-38.9632-40.81664-53.18656-64.29696z m-171.73504 171.7248l-28.5184 28.5184a200.92928 200.92928 0 0 1-16.41472 27.02336c0.41984 4.68992 2.32448 9.2672 5.90848 12.8512l2.2528 2.2528c3.20512-5.10976 6.47168-10.02496 9.80992-14.55104 14.80704-20.04992 22.94784-39.03488 26.96192-56.09472z m41.04192-41.03168l-20.54144 20.5312c-1.37216 24.81152-9.80992 54.77376-33.536 86.91712-3.81952 5.16096-7.5264 10.8544-11.1616 16.80384l14.55104 14.5408c2.21184 2.21184 4.8128 3.75808 7.55712 4.7616a656.24064 656.24064 0 0 1 17.69472-36.23936c24.18688-45.80352 28.61056-81.28512 25.43616-107.3152z m213.21728-115.11808a513.05472 513.05472 0 0 0-43.23328-42.752c10.27072 16.18944 24.2688 31.78496 43.23328 42.752z m-60.0576-38.0416l-9.71776 9.71776c14.12096 23.88992 32.53248 49.73568 52.84864 64.62464l16.8448-16.8448c-27.61728-13.4656-46.80704-35.34848-59.97568-57.4976z m-7.66976 125.1328l14.94016-14.94016c-20.87936-10.31168-41.17504-36.02432-56.90368-60.5696l-6.64576 6.64576a649.58464 649.58464 0 0 0 48.60928 68.864z m-92.04736 73.23648c-0.94208 7.24992-1.8432 14.32576-2.49856 21.31968l15.43168-15.43168c0.78848-4.88448 1.82272-9.84064 3.26656-14.90944 9.99424-34.77504-0.17408-67.69664-13.35296-92.48768l-8.93952 8.93952c13.74208 32.91136 9.78944 64.06144 6.0928 92.5696z m35.7376-16.92672l43.90912-43.90912a663.99232 663.99232 0 0 1-48.91648-68.54656l-14.8992 14.8992c14.37696 25.31328 26.60352 59.63776 19.90656 97.55648z" fill="#F5C27A" p-id="2682"></path><path d="M563.4048 423.35232a12.01152 12.01152 0 0 0-13.43488-2.43712c-1.97632 4.4544-1.2288 9.8304 2.41664 13.48608l37.2224 37.2736c3.64544 3.64544 9.00096 4.4032 13.43488 2.42688 1.98656-4.46464 1.2288-9.8304-2.41664-13.4656l-37.2224-37.28384z m-80.7936 83.63008a11.61216 11.61216 0 0 0-14.592-4.18816c-1.69984 3.84-1.66912 8.41728 0.80896 12.17536l37.69344 36.66944c3.28704 4.9664 9.4208 6.47168 14.58176 4.17792a12.67712 12.67712 0 0 0-0.80896-12.16512l-37.6832-36.66944z m39.86432-42.71104a12.01152 12.01152 0 0 0-13.43488-2.43712c-1.9968 4.4544-1.23904 9.8304 2.41664 13.48608l37.21216 37.28384c3.64544 3.62496 9.0112 4.39296 13.44512 2.42688 1.97632-4.4544 1.2288-9.82016-2.41664-13.45536l-37.2224-37.30432z" fill="#F3D485" p-id="2683"></path><path d="M426.42432 639.27296l-42.00448-42.00448a19.80416 19.80416 0 0 1 0-28.0064l-10.24 10.24a19.80416 19.80416 0 0 0 0 28.0064l42.00448 42.00448a19.79392 19.79392 0 0 0 27.99616 0l10.24-10.24a19.79392 19.79392 0 0 1-27.99616 0z" fill="#B4B8BB" p-id="2684"></path></svg>