<svg xmlns="http://www.w3.org/2000/svg" xmlns:xlink="http://www.w3.org/1999/xlink" style="margin:auto;background:#fff;display:block;" width="200px" height="200px" viewBox="0 0 100 100" preserveAspectRatio="xMidYMid">
<g><path d="M50 50Q98 26 98 50 A48 48 0 0 0 86.77013326971093 19.1461947350461 Q71.34323063723397 0.7611281001906356 50 50" stroke="none" fill="#e15b64"></path><path d="M50 50Q102.19703590218789 62.4687386300984 86.77013326971095 80.85380526495388 A48 48 0 0 0 98 50 Q98 26 50 50" stroke="none" fill="#f47e60"></path><path d="M50 50Q81.97049860030565 93.10321588057964 58.33511252801266 97.27077214458598 A48 48 0 0 0 86.77013326971095 80.85380526495388 Q102.19703590218789 62.4687386300984 50 50" stroke="none" fill="#f8b26a"></path><path d="M50 50Q46.78460969082654 103.56921938165306 26.00000000000001 91.56921938165306 A48 48 0 0 0 58.33511252801266 97.27077214458598 Q81.97049860030565 93.10321588057964 50 50" stroke="none" fill="#abbd81"></path><path d="M50 50Q13.103237642092456 88.9695897784939 4.894754202276403 66.4169668796321 A48 48 0 0 0 26.00000000000001 91.56921938165306 Q46.78460969082654 103.56921938165306 50 50" stroke="none" fill="#849b87"></path><path d="M50 50Q-3.3137292375396523 56.1356560192297 4.8947542022763955 33.5830331203679 A48 48 0 0 0 4.894754202276403 66.4169668796321 Q13.103237642092456 88.9695897784939 50 50" stroke="none" fill="#6a89a8"></path><path d="M50 50Q5.215390309173454 20.43078061834696 25.99999999999998 8.430780618346951 A48 48 0 0 0 4.8947542022763955 33.5830331203679 Q-3.3137292375396523 56.1356560192297 50 50" stroke="none" fill="#7796c9"></path><path d="M50 50Q34.69972645571964 -1.4383284085923096 58.33511252801264 2.7292278554140097 A48 48 0 0 0 25.99999999999998 8.430780618346951 Q5.215390309173454 20.43078061834696 50 50" stroke="none" fill="#e15b64"></path><path d="M50 50Q71.34323063723397 0.7611281001906356 86.77013326971093 19.1461947350461 A48 48 0 0 0 58.33511252801264 2.7292278554140097 Q34.69972645571964 -1.4383284085923096 50 50" stroke="none" fill="#f47e60"></path><animateTransform attributeName="transform" type="rotate" values="0 50 50;-360 50 50" times="0;1" dur="1s" repeatCount="indefinite"></animateTransform></g>
</svg>